<?xml version="1.0" encoding="UTF-8" standalone="no"?>
<!DOCTYPE svg PUBLIC "-//W3C//DTD SVG 1.0//EN" "http://www.w3.org/TR/2001/PR-SVG-20010719/DTD/svg10.dtd">
<svg width="101cm" height="60cm" viewBox="399 -141 2002 1183" xmlns="http://www.w3.org/2000/svg" xmlns:xlink="http://www.w3.org/1999/xlink">
  <g>
    <rect style="fill: #ffffff" x="1100" y="560" width="960" height="480" rx="40" ry="40"/>
    <rect style="fill: none; fill-opacity:0; stroke-width: 2; stroke-linejoin: round; stroke-dasharray: 20 8 4 8; stroke: #000000" x="1100" y="560" width="960" height="480" rx="40" ry="40"/>
  </g>
  <g>
    <rect style="fill: #ffffff" x="1160" y="620" width="280" height="380"/>
    <rect style="fill: none; fill-opacity:0; stroke-width: 2; stroke-linejoin: round; stroke: #000000" x="1160" y="620" width="280" height="380"/>
    <rect style="fill: #ffffff" x="1160" y="600" width="73.3" height="20"/>
    <rect style="fill: none; fill-opacity:0; stroke-width: 2; stroke-linejoin: round; stroke: #000000" x="1160" y="600" width="73.3" height="20"/>
    <text font-size="12.7998" style="fill: #000000;text-anchor:start;font-family:monospace;font-style:normal;font-weight:normal" x="1162" y="615">src/mains</text>
  </g>
  <g>
    <rect style="fill: #ffffff" x="1520" y="620" width="480" height="380"/>
    <rect style="fill: none; fill-opacity:0; stroke-width: 2; stroke-linejoin: round; stroke: #000000" x="1520" y="620" width="480" height="380"/>
    <rect style="fill: #ffffff" x="1520" y="600" width="73.3" height="20"/>
    <rect style="fill: none; fill-opacity:0; stroke-width: 2; stroke-linejoin: round; stroke: #000000" x="1520" y="600" width="73.3" height="20"/>
    <text font-size="12.7998" style="fill: #000000;text-anchor:start;font-family:monospace;font-style:normal;font-weight:normal" x="1522" y="615">src/parts</text>
  </g>
  <g>
    <rect style="fill: #ffffff" x="400" y="-60" width="2000" height="580"/>
    <rect style="fill: none; fill-opacity:0; stroke-width: 2; stroke-linejoin: round; stroke: #000000" x="400" y="-60" width="2000" height="580"/>
    <rect style="fill: #ffffff" x="400" y="-80" width="65.6" height="20"/>
    <rect style="fill: none; fill-opacity:0; stroke-width: 2; stroke-linejoin: round; stroke: #000000" x="400" y="-80" width="65.6" height="20"/>
    <text font-size="12.7998" style="fill: #000000;text-anchor:start;font-family:monospace;font-style:normal;font-weight:normal" x="402" y="-65">src/core</text>
  </g>
  <g>
    <rect style="fill: #ffffff" x="900" y="-20" width="356.5" height="28"/>
    <rect style="fill: none; fill-opacity:0; stroke-width: 2; stroke-linejoin: round; stroke: #000000" x="900" y="-20" width="356.5" height="28"/>
    <text font-size="16" style="fill: #000000;text-anchor:middle;font-family:sans-serif;font-style:italic;font-weight:700" x="1078.25" y="-1">ComThread</text>
    <rect style="fill: #ffffff" x="900" y="8" width="356.5" height="84"/>
    <rect style="fill: none; fill-opacity:0; stroke-width: 2; stroke-linejoin: round; stroke: #000000" x="900" y="8" width="356.5" height="84"/>
    <text font-size="12.8" style="fill: #000000;text-anchor:start;font-family:monospace;font-style:normal;font-weight:normal" x="903" y="22">-thr: thread</text>
    <text font-size="12.8" style="fill: #000000;text-anchor:start;font-family:monospace;font-style:normal;font-weight:normal" x="903" y="38">-dt_microseconds: int</text>
    <text font-size="12.8" style="fill: #000000;text-anchor:start;font-family:monospace;font-style:normal;font-weight:normal" x="903" y="54">-jog_go_on: bool</text>
    <text font-size="12.8" style="fill: #000000;text-anchor:start;font-family:monospace;font-style:normal;font-weight:normal" x="903" y="70">-name: string</text>
    <text font-size="12.8" style="fill: #000000;text-anchor:start;font-family:monospace;font-style:normal;font-weight:normal" x="903" y="86">-critical_input, critical_output: PFloatMap</text>
    <rect style="fill: #ffffff" x="900" y="92" width="356.5" height="276"/>
    <rect style="fill: none; fill-opacity:0; stroke-width: 2; stroke-linejoin: round; stroke: #000000" x="900" y="92" width="356.5" height="276"/>
    <text font-size="12.8" style="fill: #000000;text-anchor:start;font-family:monospace;font-style:normal;font-weight:normal" x="903" y="106">+Link(s:Share*): void</text>
    <text font-size="12.8" style="fill: #000000;text-anchor:start;font-family:monospace;font-style:normal;font-weight:normal" x="903" y="122">+Launch(): void</text>
    <text font-size="12.8" style="fill: #000000;text-anchor:start;font-family:monospace;font-style:normal;font-weight:normal" x="903" y="138">+Join(): void</text>
    <text font-size="12.8" style="fill: #000000;text-anchor:start;font-family:monospace;font-style:normal;font-weight:normal" x="903" y="154">+Set_name(name:string): void</text>
    <text font-size="12.8" style="fill: #000000;text-anchor:start;font-family:monospace;font-style:normal;font-weight:normal" x="903" y="170">+Set_freq(dt_microseconds:int): void</text>
    <text font-size="12.8" style="fill: #000000;text-anchor:start;font-family:monospace;font-style:normal;font-weight:normal" x="903" y="186">+Get_name(): string</text>
    <text font-size="12.8" style="fill: #000000;text-anchor:start;font-family:monospace;font-style:normal;font-weight:normal" x="903" y="202">+Get_freq(): float</text>
    <text font-size="12.8" style="fill: #000000;text-anchor:start;font-family:monospace;font-style:normal;font-weight:normal" x="903" y="218">+Get_inputs(): vector &lt;string&gt;</text>
    <text font-size="12.8" style="fill: #000000;text-anchor:start;font-family:monospace;font-style:normal;font-weight:normal" x="903" y="234">+Get_outputs(): vector &lt;string&gt;</text>
    <text font-size="12.8" style="fill: #000000;text-anchor:start;font-family:monospace;font-style:normal;font-weight:normal" x="903" y="250">-Loop_job(): void</text>
    <text font-size="12.8" style="fill: #000000;text-anchor:start;font-family:monospace;font-style:italic;font-weight:normal" x="903" y="266">#On_start(): void</text>
    <text font-size="12.8" style="fill: #000000;text-anchor:start;font-family:monospace;font-style:italic;font-weight:normal" x="903" y="282">#Job(): void</text>
    <text font-size="12.8" style="fill: #000000;text-anchor:start;font-family:monospace;font-style:italic;font-weight:normal" x="903" y="298">#IO(): void</text>
    <text font-size="12.8" style="fill: #000000;text-anchor:start;font-family:monospace;font-style:normal;font-weight:normal" x="903" y="314">#Link_input(key:string,p_float:float*): void</text>
    <text font-size="12.8" style="fill: #000000;text-anchor:start;font-family:monospace;font-style:normal;font-weight:normal" x="903" y="330">#Link_output(key:string,p_float:float*): void</text>
    <text font-size="12.8" style="fill: #000000;text-anchor:start;font-family:monospace;font-style:normal;font-weight:normal" x="903" y="346">#Critical_receive(): void</text>
    <text font-size="12.8" style="fill: #000000;text-anchor:start;font-family:monospace;font-style:normal;font-weight:normal" x="903" y="362">#Critical_send(): void</text>
  </g>
  <g>
    <rect style="fill: #ffffff" x="840" y="400" width="472" height="28"/>
    <rect style="fill: none; fill-opacity:0; stroke-width: 2; stroke-linejoin: round; stroke: #000000" x="840" y="400" width="472" height="28"/>
    <text font-size="16" style="fill: #000000;text-anchor:middle;font-family:sans-serif;font-style:normal;font-weight:700" x="1076" y="419">ComDraw</text>
    <rect style="fill: #ffffff" x="840" y="428" width="472" height="8"/>
    <rect style="fill: none; fill-opacity:0; stroke-width: 2; stroke-linejoin: round; stroke: #000000" x="840" y="428" width="472" height="8"/>
    <rect style="fill: #ffffff" x="840" y="436" width="472" height="52"/>
    <rect style="fill: none; fill-opacity:0; stroke-width: 2; stroke-linejoin: round; stroke: #000000" x="840" y="436" width="472" height="52"/>
    <text font-size="12.8" style="fill: #000000;text-anchor:start;font-family:monospace;font-style:normal;font-weight:normal" x="843" y="450">+Draw_threads(name:string,threads:vector &lt;ComThread*&gt;): void</text>
    <text font-size="12.8" style="fill: #000000;text-anchor:start;font-family:monospace;font-style:normal;font-weight:normal" x="843" y="466">-Generate_dot(name:string,threads:vector &lt;ComThread*&gt;): void</text>
    <text font-size="12.8" style="fill: #000000;text-anchor:start;font-family:monospace;font-style:normal;font-weight:normal" x="843" y="482">-Generate_svg(name:string): void</text>
  </g>
  <g>
    <rect style="fill: #ffffff" x="940" y="580" width="89.95" height="28"/>
    <rect style="fill: none; fill-opacity:0; stroke-width: 2; stroke-linejoin: round; stroke: #000000" x="940" y="580" width="89.95" height="28"/>
    <text font-size="16" style="fill: #000000;text-anchor:middle;font-family:sans-serif;font-style:normal;font-weight:700" x="984.975" y="599">Graphviz</text>
    <rect style="fill: #ffffff" x="940" y="608" width="89.95" height="8"/>
    <rect style="fill: none; fill-opacity:0; stroke-width: 2; stroke-linejoin: round; stroke: #000000" x="940" y="608" width="89.95" height="8"/>
    <rect style="fill: #ffffff" x="940" y="616" width="89.95" height="8"/>
    <rect style="fill: none; fill-opacity:0; stroke-width: 2; stroke-linejoin: round; stroke: #000000" x="940" y="616" width="89.95" height="8"/>
  </g>
  <g>
    <polyline style="fill: none; fill-opacity:0; stroke-width: 2; stroke-dasharray: 8; stroke: #000000" points="1076,488 1076,540 984.975,540 984.975,573.295 "/>
    <polyline style="fill: none; fill-opacity:0; stroke-width: 2; stroke: #000000" points="979.975,560.647 984.975,576.647 989.975,560.647 "/>
  </g>
  <g>
    <rect style="fill: #ffffff" x="500" y="-20" width="271.8" height="28"/>
    <rect style="fill: none; fill-opacity:0; stroke-width: 2; stroke: #000000" x="500" y="-20" width="271.8" height="28"/>
    <text font-size="16" style="fill: #000000;text-anchor:middle;font-family:sans-serif;font-style:normal;font-weight:700" x="635.9" y="-1">Share</text>
    <rect style="fill: #ffffff" x="500" y="8" width="271.8" height="36"/>
    <rect style="fill: none; fill-opacity:0; stroke-width: 2; stroke: #000000" x="500" y="8" width="271.8" height="36"/>
    <text font-size="12.8" style="fill: #000000;text-anchor:start;font-family:monospace;font-style:normal;font-weight:normal" x="503" y="22">-mu: mutex</text>
    <text font-size="12.8" style="fill: #000000;text-anchor:start;font-family:monospace;font-style:normal;font-weight:normal" x="503" y="38">-data: FloatMap</text>
    <rect style="fill: #ffffff" x="500" y="44" width="271.8" height="84"/>
    <rect style="fill: none; fill-opacity:0; stroke-width: 2; stroke: #000000" x="500" y="44" width="271.8" height="84"/>
    <text font-size="12.8" style="fill: #000000;text-anchor:start;font-family:monospace;font-style:normal;font-weight:normal" x="503" y="58">+Create_data(key:string): void</text>
    <text font-size="12.8" style="fill: #000000;text-anchor:start;font-family:monospace;font-style:normal;font-weight:normal" x="503" y="74">+Send(input:PFloatMap): void</text>
    <text font-size="12.8" style="fill: #000000;text-anchor:start;font-family:monospace;font-style:normal;font-weight:normal" x="503" y="90">+Receive(StringVec:keys): FloatMap</text>
    <text font-size="12.8" style="fill: #000000;text-anchor:start;font-family:monospace;font-style:normal;font-weight:normal" x="503" y="106">-Lock(): void</text>
    <text font-size="12.8" style="fill: #000000;text-anchor:start;font-family:monospace;font-style:normal;font-weight:normal" x="503" y="122">-Unlock(): void</text>
  </g>
  <g>
    <rect style="fill: #ffffff" x="440" y="340" width="333.4" height="28"/>
    <rect style="fill: none; fill-opacity:0; stroke-width: 2; stroke: #000000" x="440" y="340" width="333.4" height="28"/>
    <text font-size="16" style="fill: #000000;text-anchor:middle;font-family:sans-serif;font-style:normal;font-weight:700" x="606.7" y="359">Maestro</text>
    <rect style="fill: #ffffff" x="440" y="368" width="333.4" height="20"/>
    <rect style="fill: none; fill-opacity:0; stroke-width: 2; stroke: #000000" x="440" y="368" width="333.4" height="20"/>
    <text font-size="12.8" style="fill: #000000;text-anchor:start;font-family:monospace;font-style:normal;font-weight:normal" x="443" y="382">-threads: vector &lt;ComThread*&gt;</text>
    <rect style="fill: #ffffff" x="440" y="388" width="333.4" height="100"/>
    <rect style="fill: none; fill-opacity:0; stroke-width: 2; stroke: #000000" x="440" y="388" width="333.4" height="100"/>
    <text font-size="12.8" style="fill: #000000;text-anchor:start;font-family:monospace;font-style:normal;font-weight:normal" x="443" y="402">#Add_thread(thread:ComThread*,name:string,</text>
    <text font-size="12.8" style="fill: #000000;text-anchor:start;font-family:monospace;font-style:normal;font-weight:normal" x="443" y="418">            dt_microseconds:int): void</text>
    <text font-size="12.8" style="fill: #000000;text-anchor:start;font-family:monospace;font-style:normal;font-weight:normal" x="443" y="434">#Link_all(): void</text>
    <text font-size="12.8" style="fill: #000000;text-anchor:start;font-family:monospace;font-style:normal;font-weight:normal" x="443" y="450">#Launch_all(): void</text>
    <text font-size="12.8" style="fill: #000000;text-anchor:start;font-family:monospace;font-style:normal;font-weight:normal" x="443" y="466">#Join_all(): void</text>
    <text font-size="12.8" style="fill: #000000;text-anchor:start;font-family:monospace;font-style:normal;font-weight:normal" x="443" y="482">#Draw(filename:string): void</text>
  </g>
  <g>
    <rect style="fill: #ffffff" x="1220" y="780" width="145.95" height="28"/>
    <rect style="fill: none; fill-opacity:0; stroke-width: 2; stroke: #000000" x="1220" y="780" width="145.95" height="28"/>
    <text font-size="16" style="fill: #000000;text-anchor:middle;font-family:sans-serif;font-style:normal;font-weight:700" x="1292.98" y="799">Java_to_python</text>
    <rect style="fill: #ffffff" x="1220" y="808" width="145.95" height="8"/>
    <rect style="fill: none; fill-opacity:0; stroke-width: 2; stroke: #000000" x="1220" y="808" width="145.95" height="8"/>
    <rect style="fill: #ffffff" x="1220" y="816" width="145.95" height="36"/>
    <rect style="fill: none; fill-opacity:0; stroke-width: 2; stroke: #000000" x="1220" y="816" width="145.95" height="36"/>
    <text font-size="12.8" style="fill: #000000;text-anchor:start;font-family:monospace;font-style:normal;font-weight:normal" x="1223" y="830">+main(): int</text>
    <line style="fill: none; fill-opacity:0; stroke-width: 1; stroke: #000000" x1="1223" y1="831.6" x2="1315.4" y2="831.6"/>
    <text font-size="12.8" style="fill: #000000;text-anchor:start;font-family:monospace;font-style:normal;font-weight:normal" x="1223" y="846">+Shutdown(): void</text>
  </g>
  <g>
    <rect style="fill: #ffffff" x="1560" y="680" width="133.2" height="28"/>
    <rect style="fill: none; fill-opacity:0; stroke-width: 2; stroke: #000000" x="1560" y="680" width="133.2" height="28"/>
    <text font-size="16" style="fill: #000000;text-anchor:middle;font-family:sans-serif;font-style:normal;font-weight:700" x="1626.6" y="699">Sensor_Java</text>
    <rect style="fill: #ffffff" x="1560" y="708" width="133.2" height="20"/>
    <rect style="fill: none; fill-opacity:0; stroke-width: 2; stroke: #000000" x="1560" y="708" width="133.2" height="20"/>
    <text font-size="12.8" style="fill: #000000;text-anchor:start;font-family:monospace;font-style:normal;font-weight:normal" x="1563" y="722">-data_out: float</text>
    <rect style="fill: #ffffff" x="1560" y="728" width="133.2" height="36"/>
    <rect style="fill: none; fill-opacity:0; stroke-width: 2; stroke: #000000" x="1560" y="728" width="133.2" height="36"/>
    <text font-size="12.8" style="fill: #000000;text-anchor:start;font-family:monospace;font-style:normal;font-weight:normal" x="1563" y="742">-Job()</text>
    <text font-size="12.8" style="fill: #000000;text-anchor:start;font-family:monospace;font-style:normal;font-weight:normal" x="1563" y="758">-IO(): void</text>
  </g>
  <g>
    <rect style="fill: #ffffff" x="1560" y="860" width="140.9" height="28"/>
    <rect style="fill: none; fill-opacity:0; stroke-width: 2; stroke: #000000" x="1560" y="860" width="140.9" height="28"/>
    <text font-size="16" style="fill: #000000;text-anchor:middle;font-family:sans-serif;font-style:normal;font-weight:700" x="1630.45" y="879">State_Python</text>
    <rect style="fill: #ffffff" x="1560" y="888" width="140.9" height="20"/>
    <rect style="fill: none; fill-opacity:0; stroke-width: 2; stroke: #000000" x="1560" y="888" width="140.9" height="20"/>
    <text font-size="12.8" style="fill: #000000;text-anchor:start;font-family:monospace;font-style:normal;font-weight:normal" x="1563" y="902">-data_in: float</text>
    <rect style="fill: #ffffff" x="1560" y="908" width="140.9" height="52"/>
    <rect style="fill: none; fill-opacity:0; stroke-width: 2; stroke: #000000" x="1560" y="908" width="140.9" height="52"/>
    <text font-size="12.8" style="fill: #000000;text-anchor:start;font-family:monospace;font-style:normal;font-weight:normal" x="1563" y="922">-On_start(): void</text>
    <text font-size="12.8" style="fill: #000000;text-anchor:start;font-family:monospace;font-style:normal;font-weight:normal" x="1563" y="938">-Job(): void</text>
    <text font-size="12.8" style="fill: #000000;text-anchor:start;font-family:monospace;font-style:normal;font-weight:normal" x="1563" y="954">-IO(): void</text>
  </g>
  <g>
    <polyline style="fill: none; fill-opacity:0; stroke-width: 2; stroke: #000000" points="606.7,506.236 606.7,720 1292.98,720 1292.98,780 "/>
    <polygon style="fill: #ffffff" points="614.7,506.236 606.7,490.236 598.7,506.236 "/>
    <polygon style="fill: none; fill-opacity:0; stroke-width: 2; stroke: #000000" points="614.7,506.236 606.7,490.236 598.7,506.236 "/>
  </g>
  <g>
    <polyline style="fill: none; fill-opacity:0; stroke-width: 2; stroke: #000000" points="606.7,314.828 606.7,240 635.9,240 635.9,128 "/>
    <polygon style="fill: #ffffff" points="606.7,340 601.9,326 606.7,312 611.5,326 "/>
    <polygon style="fill: none; fill-opacity:0; stroke-width: 2; stroke: #000000" points="606.7,340 601.9,326 606.7,312 611.5,326 "/>
    <text font-size="12.7998" style="fill: #000000;text-anchor:middle;font-family:monospace;font-style:normal;font-weight:normal" x="621.3" y="237"/>
    <text font-size="12.7998" style="fill: #000000;text-anchor:start;font-family:monospace;font-style:normal;font-weight:normal" x="617.7" y="336">1</text>
    <text font-size="12.7998" style="fill: #000000;text-anchor:start;font-family:monospace;font-style:normal;font-weight:normal" x="639.9" y="140">1</text>
  </g>
  <g>
    <polyline style="fill: none; fill-opacity:0; stroke-width: 2; stroke: #000000" points="771.8,-6 772.8,-6 899,-6 900,-6 "/>
    <text font-size="12.7998" style="fill: #000000;text-anchor:middle;font-family:monospace;font-style:normal;font-weight:normal" x="835.9" y="-9"/>
    <polygon style="fill: #000000" points="831.9,-9 831.9,-17 823.9,-13 "/>
    <text font-size="12.7998" style="fill: #000000;text-anchor:start;font-family:monospace;font-style:normal;font-weight:normal" x="775.8" y="-9">1</text>
    <text font-size="12.7998" style="fill: #000000;text-anchor:end;font-family:monospace;font-style:normal;font-weight:normal" x="896" y="-9">*</text>
  </g>
  <g>
    <polyline style="fill: none; fill-opacity:0; stroke-width: 2; stroke: #000000" points="1391.12,794 1480,794 1480,694 1560,694 "/>
    <polygon style="fill: #ffffff" points="1365.95,794 1379.95,789.2 1393.95,794 1379.95,798.8 "/>
    <polygon style="fill: none; fill-opacity:0; stroke-width: 2; stroke: #000000" points="1365.95,794 1379.95,789.2 1393.95,794 1379.95,798.8 "/>
    <text font-size="12.7998" style="fill: #000000;text-anchor:start;font-family:monospace;font-style:normal;font-weight:normal" x="1482" y="741"/>
    <text font-size="12.7998" style="fill: #000000;text-anchor:start;font-family:monospace;font-style:normal;font-weight:normal" x="1397.95" y="791">1</text>
    <text font-size="12.7998" style="fill: #000000;text-anchor:end;font-family:monospace;font-style:normal;font-weight:normal" x="1556" y="691">1</text>
  </g>
  <g>
    <polyline style="fill: none; fill-opacity:0; stroke-width: 2; stroke: #000000" points="1391.12,794 1480,794 1480,874 1560,874 "/>
    <polygon style="fill: #ffffff" points="1365.95,794 1379.95,789.2 1393.95,794 1379.95,798.8 "/>
    <polygon style="fill: none; fill-opacity:0; stroke-width: 2; stroke: #000000" points="1365.95,794 1379.95,789.2 1393.95,794 1379.95,798.8 "/>
    <text font-size="12.7998" style="fill: #000000;text-anchor:start;font-family:monospace;font-style:normal;font-weight:normal" x="1482" y="831"/>
    <text font-size="12.7998" style="fill: #000000;text-anchor:start;font-family:monospace;font-style:normal;font-weight:normal" x="1397.95" y="791">1</text>
    <text font-size="12.7998" style="fill: #000000;text-anchor:end;font-family:monospace;font-style:normal;font-weight:normal" x="1556" y="871">1</text>
  </g>
  <text font-size="12.8" style="fill: #000000;text-anchor:middle;font-family:sans-serif;font-style:normal;font-weight:normal" x="1580" y="1024.45">
    <tspan x="1580" y="1024.45">What you have to do</tspan>
  </text>
  <g>
    <rect style="fill: #ffffff" x="1900" y="60" width="464.3" height="28"/>
    <rect style="fill: none; fill-opacity:0; stroke-width: 2; stroke: #000000" x="1900" y="60" width="464.3" height="28"/>
    <text font-size="16" style="fill: #000000;text-anchor:middle;font-family:sans-serif;font-style:italic;font-weight:700" x="2132.15" y="79">ComPython</text>
    <rect style="fill: #ffffff" x="1900" y="88" width="464.3" height="36"/>
    <rect style="fill: none; fill-opacity:0; stroke-width: 2; stroke: #000000" x="1900" y="88" width="464.3" height="36"/>
    <text font-size="12.8" style="fill: #000000;text-anchor:start;font-family:monospace;font-style:normal;font-weight:normal" x="1903" y="102">-connected: bool</text>
    <text font-size="12.8" style="fill: #000000;text-anchor:start;font-family:monospace;font-style:normal;font-weight:normal" x="1903" y="118">-input_keys, output_keys: PFloatMap</text>
    <rect style="fill: #ffffff" x="1900" y="124" width="464.3" height="116"/>
    <rect style="fill: none; fill-opacity:0; stroke-width: 2; stroke: #000000" x="1900" y="124" width="464.3" height="116"/>
    <text font-size="12.8" style="fill: #000000;text-anchor:start;font-family:monospace;font-style:normal;font-weight:normal" x="1903" y="138">+Connect_python(script_name:string,class_name:string): void</text>
    <text font-size="12.8" style="fill: #000000;text-anchor:start;font-family:monospace;font-style:normal;font-weight:normal" x="1903" y="154">+Disconnect_python(): void</text>
    <text font-size="12.8" style="fill: #000000;text-anchor:start;font-family:monospace;font-style:normal;font-weight:normal" x="1903" y="170">#Link_input_python(key:string,p_float:float*): void</text>
    <text font-size="12.8" style="fill: #000000;text-anchor:start;font-family:monospace;font-style:normal;font-weight:normal" x="1903" y="186">#Link_output_python(key:string,p_float:float*): void</text>
    <text font-size="12.8" style="fill: #000000;text-anchor:start;font-family:monospace;font-style:normal;font-weight:normal" x="1903" y="202">#Send_to_python(): void</text>
    <text font-size="12.8" style="fill: #000000;text-anchor:start;font-family:monospace;font-style:normal;font-weight:normal" x="1903" y="218">#Receive_from_python(): void</text>
    <text font-size="12.8" style="fill: #000000;text-anchor:start;font-family:monospace;font-style:normal;font-weight:normal" x="1903" y="234">#Job_python(): void</text>
  </g>
  <g>
    <rect style="fill: #ffffff" x="1780" y="860" width="160" height="100"/>
    <rect style="fill: none; fill-opacity:0; stroke-width: 2; stroke: #000000" x="1780" y="860" width="160" height="100"/>
    <rect style="fill: #ffffff" x="1780" y="840" width="127.2" height="20"/>
    <rect style="fill: none; fill-opacity:0; stroke-width: 2; stroke: #000000" x="1780" y="840" width="127.2" height="20"/>
    <text font-size="12.7998" style="fill: #000000;text-anchor:start;font-family:monospace;font-style:normal;font-weight:normal" x="1782" y="855">src/parts/python</text>
  </g>
  <g>
    <rect style="fill: #ffffff" x="1800" y="880" width="125.5" height="28"/>
    <rect style="fill: none; fill-opacity:0; stroke-width: 2; stroke: #000000" x="1800" y="880" width="125.5" height="28"/>
    <text font-size="16" style="fill: #000000;text-anchor:middle;font-family:sans-serif;font-style:normal;font-weight:700" x="1862.75" y="899">brain.py</text>
    <rect style="fill: #ffffff" x="1800" y="908" width="125.5" height="20"/>
    <rect style="fill: none; fill-opacity:0; stroke-width: 2; stroke: #000000" x="1800" y="908" width="125.5" height="20"/>
    <text font-size="12.8" style="fill: #000000;text-anchor:start;font-family:monospace;font-style:normal;font-weight:normal" x="1803" y="922">+my_data: Float</text>
    <rect style="fill: #ffffff" x="1800" y="928" width="125.5" height="20"/>
    <rect style="fill: none; fill-opacity:0; stroke-width: 2; stroke: #000000" x="1800" y="928" width="125.5" height="20"/>
    <text font-size="12.8" style="fill: #000000;text-anchor:start;font-family:monospace;font-style:normal;font-weight:normal" x="1803" y="942">+Job(): def</text>
  </g>
  <g>
    <polyline style="fill: none; fill-opacity:0; stroke-width: 2; stroke: #000000" points="1700.9,874 1740,874 1740,894 1800,894 "/>
    <text font-size="12.7998" style="fill: #000000;text-anchor:start;font-family:monospace;font-style:normal;font-weight:normal" x="1742" y="881"/>
    <polygon style="fill: #000000" points="1744,881 1744,873 1752,877 "/>
    <text font-size="12.7998" style="fill: #000000;text-anchor:start;font-family:monospace;font-style:normal;font-weight:normal" x="1704.9" y="871">1</text>
    <text font-size="12.7998" style="fill: #000000;text-anchor:end;font-family:monospace;font-style:normal;font-weight:normal" x="1796" y="891">1</text>
  </g>
  <g>
    <rect style="fill: #ffffff" x="1340" y="40" width="487.4" height="28"/>
    <rect style="fill: none; fill-opacity:0; stroke-width: 2; stroke: #000000" x="1340" y="40" width="487.4" height="28"/>
    <text font-size="16" style="fill: #000000;text-anchor:middle;font-family:sans-serif;font-style:italic;font-weight:700" x="1583.7" y="59">ComJava</text>
    <rect style="fill: #ffffff" x="1340" y="68" width="487.4" height="84"/>
    <rect style="fill: none; fill-opacity:0; stroke-width: 2; stroke: #000000" x="1340" y="68" width="487.4" height="84"/>
    <text font-size="12.8" style="fill: #000000;text-anchor:start;font-family:monospace;font-style:normal;font-weight:normal" x="1343" y="82">-connected: bool</text>
    <text font-size="12.8" style="fill: #000000;text-anchor:start;font-family:monospace;font-style:normal;font-weight:normal" x="1343" y="98">-input_keys, output_keys: PFloatMap</text>
    <text font-size="12.8" style="fill: #000000;text-anchor:start;font-family:monospace;font-style:normal;font-weight:normal" x="1343" y="114">-jstr: COREJAVA*</text>
    <text font-size="12.8" style="fill: #000000;text-anchor:start;font-family:monospace;font-style:normal;font-weight:normal" x="1343" y="130">-jobj: JOBJECTS_STRUCT*</text>
    <text font-size="12.8" style="fill: #000000;text-anchor:start;font-family:monospace;font-style:normal;font-weight:normal" x="1343" y="146">-full_class_name: string</text>
    <rect style="fill: #ffffff" x="1340" y="152" width="487.4" height="148"/>
    <rect style="fill: none; fill-opacity:0; stroke-width: 2; stroke: #000000" x="1340" y="152" width="487.4" height="148"/>
    <text font-size="12.8" style="fill: #000000;text-anchor:start;font-family:monospace;font-style:normal;font-weight:normal" x="1343" y="166">+Connect_java(corejava:CoreJava*,full_class_name:string): void</text>
    <text font-size="12.8" style="fill: #000000;text-anchor:start;font-family:monospace;font-style:normal;font-weight:normal" x="1343" y="182">+Disconnect_java(): void</text>
    <text font-size="12.8" style="fill: #000000;text-anchor:start;font-family:monospace;font-style:normal;font-weight:normal" x="1343" y="198">#Link_input_java(key:string,p_float:float*): void</text>
    <text font-size="12.8" style="fill: #000000;text-anchor:start;font-family:monospace;font-style:normal;font-weight:normal" x="1343" y="214">#Link_output_java(key:string,p_float:float*): void</text>
    <text font-size="12.8" style="fill: #000000;text-anchor:start;font-family:monospace;font-style:normal;font-weight:normal" x="1343" y="230">#Send_to_java(): void</text>
    <text font-size="12.8" style="fill: #000000;text-anchor:start;font-family:monospace;font-style:normal;font-weight:normal" x="1343" y="246">#Receive_from_java(): void</text>
    <text font-size="12.8" style="fill: #000000;text-anchor:start;font-family:monospace;font-style:normal;font-weight:normal" x="1343" y="262">#Job_java(): void</text>
    <text font-size="12.8" style="fill: #000000;text-anchor:start;font-family:monospace;font-style:normal;font-weight:normal" x="1343" y="278">-Build_objects(): JOBJECTS_STRUCT*</text>
    <text font-size="12.8" style="fill: #000000;text-anchor:start;font-family:monospace;font-style:normal;font-weight:normal" x="1343" y="294">-On_start(): void</text>
  </g>
  <g>
    <rect style="fill: #ffffff" x="1780" y="680" width="200" height="100"/>
    <rect style="fill: none; fill-opacity:0; stroke-width: 2; stroke: #000000" x="1780" y="680" width="200" height="100"/>
    <rect style="fill: #ffffff" x="1780" y="660" width="111.8" height="20"/>
    <rect style="fill: none; fill-opacity:0; stroke-width: 2; stroke: #000000" x="1780" y="660" width="111.8" height="20"/>
    <text font-size="12.7998" style="fill: #000000;text-anchor:start;font-family:monospace;font-style:normal;font-weight:normal" x="1782" y="675">src/parts/java</text>
  </g>
  <g>
    <rect style="fill: #ffffff" x="1800" y="700" width="161.4" height="28"/>
    <rect style="fill: none; fill-opacity:0; stroke-width: 2; stroke: #000000" x="1800" y="700" width="161.4" height="28"/>
    <text font-size="16" style="fill: #000000;text-anchor:middle;font-family:sans-serif;font-style:normal;font-weight:700" x="1880.7" y="719">Fake_sensor.java</text>
    <rect style="fill: #ffffff" x="1800" y="728" width="161.4" height="20"/>
    <rect style="fill: none; fill-opacity:0; stroke-width: 2; stroke: #000000" x="1800" y="728" width="161.4" height="20"/>
    <text font-size="12.8" style="fill: #000000;text-anchor:start;font-family:monospace;font-style:normal;font-weight:normal" x="1803" y="742">+my_data: float</text>
    <rect style="fill: #ffffff" x="1800" y="748" width="161.4" height="20"/>
    <rect style="fill: none; fill-opacity:0; stroke-width: 2; stroke: #000000" x="1800" y="748" width="161.4" height="20"/>
    <text font-size="12.8" style="fill: #000000;text-anchor:start;font-family:monospace;font-style:normal;font-weight:normal" x="1803" y="762">+Job(): void</text>
  </g>
  <g>
    <polyline style="fill: none; fill-opacity:0; stroke-width: 2; stroke: #000000" points="1693.2,694 1740,694 1740,714 1800,714 "/>
    <text font-size="12.7998" style="fill: #000000;text-anchor:start;font-family:monospace;font-style:normal;font-weight:normal" x="1742" y="701"/>
    <polygon style="fill: #000000" points="1744,701 1744,693 1752,697 "/>
    <text font-size="12.7998" style="fill: #000000;text-anchor:start;font-family:monospace;font-style:normal;font-weight:normal" x="1697.2" y="691">1</text>
    <text font-size="12.7998" style="fill: #000000;text-anchor:end;font-family:monospace;font-style:normal;font-weight:normal" x="1796" y="711">1</text>
  </g>
  <g>
    <polyline style="fill: none; fill-opacity:0; stroke-width: 2; stroke: #000000" points="1274.74,-6 1583.7,-6 1583.7,40 "/>
    <polygon style="fill: #ffffff" points="1274.74,-14 1258.74,-6 1274.74,2 "/>
    <polygon style="fill: none; fill-opacity:0; stroke-width: 2; stroke: #000000" points="1274.74,-14 1258.74,-6 1274.74,2 "/>
  </g>
  <g>
    <polyline style="fill: none; fill-opacity:0; stroke-width: 2; stroke: #000000" points="1274.74,-6 2132.15,-6 2132.15,60 "/>
    <polygon style="fill: #ffffff" points="1274.74,-14 1258.74,-6 1274.74,2 "/>
    <polygon style="fill: none; fill-opacity:0; stroke-width: 2; stroke: #000000" points="1274.74,-14 1258.74,-6 1274.74,2 "/>
  </g>
  <g>
    <polyline style="fill: none; fill-opacity:0; stroke-width: 2; stroke: #000000" points="1583.7,318.236 1583.7,540 1626.6,540 1626.6,680 "/>
    <polygon style="fill: #ffffff" points="1591.7,318.236 1583.7,302.236 1575.7,318.236 "/>
    <polygon style="fill: none; fill-opacity:0; stroke-width: 2; stroke: #000000" points="1591.7,318.236 1583.7,302.236 1575.7,318.236 "/>
  </g>
  <g>
    <polyline style="fill: none; fill-opacity:0; stroke-width: 2; stroke: #000000" points="2132.15,258.236 2132.15,820 1630.45,820 1630.45,860 "/>
    <polygon style="fill: #ffffff" points="2140.15,258.236 2132.15,242.236 2124.15,258.236 "/>
    <polygon style="fill: none; fill-opacity:0; stroke-width: 2; stroke: #000000" points="2140.15,258.236 2132.15,242.236 2124.15,258.236 "/>
  </g>
  <g>
    <rect style="fill: #ffffff" x="1340" y="340" width="187.1" height="28"/>
    <rect style="fill: none; fill-opacity:0; stroke-width: 2; stroke: #000000" x="1340" y="340" width="187.1" height="28"/>
    <text font-size="16" style="fill: #000000;text-anchor:middle;font-family:sans-serif;font-style:normal;font-weight:700" x="1433.55" y="359">CoreJava</text>
    <rect style="fill: #ffffff" x="1340" y="368" width="187.1" height="36"/>
    <rect style="fill: none; fill-opacity:0; stroke-width: 2; stroke: #000000" x="1340" y="368" width="187.1" height="36"/>
    <text font-size="12.8" style="fill: #000000;text-anchor:start;font-family:monospace;font-style:normal;font-weight:normal" x="1343" y="382">-connected: bool</text>
    <text font-size="12.8" style="fill: #000000;text-anchor:start;font-family:monospace;font-style:normal;font-weight:normal" x="1343" y="398">-jstr: COREJAVA*</text>
    <rect style="fill: #ffffff" x="1340" y="404" width="187.1" height="84"/>
    <rect style="fill: none; fill-opacity:0; stroke-width: 2; stroke: #000000" x="1340" y="404" width="187.1" height="84"/>
    <text font-size="12.8" style="fill: #000000;text-anchor:start;font-family:monospace;font-style:normal;font-weight:normal" x="1343" y="418">+Java_init(): void</text>
    <text font-size="12.8" style="fill: #000000;text-anchor:start;font-family:monospace;font-style:normal;font-weight:normal" x="1343" y="434">+Java_close(): void</text>
    <text font-size="12.8" style="fill: #000000;text-anchor:start;font-family:monospace;font-style:normal;font-weight:normal" x="1343" y="450">+Get_jstr(): COREJAVA*</text>
    <text font-size="12.8" style="fill: #000000;text-anchor:start;font-family:monospace;font-style:normal;font-weight:normal" x="1343" y="466">+Is_connected(): bool</text>
    <text font-size="12.8" style="fill: #000000;text-anchor:start;font-family:monospace;font-style:normal;font-weight:normal" x="1343" y="482">+Build_jvm(): COREJAVA*</text>
  </g>
  <g>
    <polyline style="fill: none; fill-opacity:0; stroke-width: 2; stroke: #000000" points="1391.12,794 1480,794 1480,540 1433.55,540 1433.55,488 "/>
    <polygon style="fill: #ffffff" points="1365.95,794 1379.95,789.2 1393.95,794 1379.95,798.8 "/>
    <polygon style="fill: none; fill-opacity:0; stroke-width: 2; stroke: #000000" points="1365.95,794 1379.95,789.2 1393.95,794 1379.95,798.8 "/>
    <text font-size="12.7998" style="fill: #000000;text-anchor:middle;font-family:monospace;font-style:normal;font-weight:normal" x="1456.78" y="537"/>
    <text font-size="12.7998" style="fill: #000000;text-anchor:start;font-family:monospace;font-style:normal;font-weight:normal" x="1397.95" y="791">1</text>
    <text font-size="12.7998" style="fill: #000000;text-anchor:start;font-family:monospace;font-style:normal;font-weight:normal" x="1437.55" y="500">1</text>
  </g>
  <g>
    <rect style="fill: #ffffff" x="1800" y="-140" width="128.15" height="28"/>
    <rect style="fill: none; fill-opacity:0; stroke-width: 2; stroke: #000000" x="1800" y="-140" width="128.15" height="28"/>
    <text font-size="16" style="fill: #000000;text-anchor:middle;font-family:sans-serif;font-style:normal;font-weight:700" x="1864.08" y="-121">Python C-API</text>
    <rect style="fill: #ffffff" x="1800" y="-112" width="128.15" height="8"/>
    <rect style="fill: none; fill-opacity:0; stroke-width: 2; stroke: #000000" x="1800" y="-112" width="128.15" height="8"/>
    <rect style="fill: #ffffff" x="1800" y="-104" width="128.15" height="8"/>
    <rect style="fill: none; fill-opacity:0; stroke-width: 2; stroke: #000000" x="1800" y="-104" width="128.15" height="8"/>
  </g>
  <g>
    <rect style="fill: #ffffff" x="1200" y="-140" width="199.65" height="28"/>
    <rect style="fill: none; fill-opacity:0; stroke-width: 2; stroke: #000000" x="1200" y="-140" width="199.65" height="28"/>
    <text font-size="16" style="fill: #000000;text-anchor:middle;font-family:sans-serif;font-style:normal;font-weight:700" x="1299.82" y="-121">Java Native Interface</text>
    <rect style="fill: #ffffff" x="1200" y="-112" width="199.65" height="8"/>
    <rect style="fill: none; fill-opacity:0; stroke-width: 2; stroke: #000000" x="1200" y="-112" width="199.65" height="8"/>
    <rect style="fill: #ffffff" x="1200" y="-104" width="199.65" height="8"/>
    <rect style="fill: none; fill-opacity:0; stroke-width: 2; stroke: #000000" x="1200" y="-104" width="199.65" height="8"/>
  </g>
  <g>
    <polyline style="fill: none; fill-opacity:0; stroke-width: 2; stroke-dasharray: 8; stroke: #000000" points="1340,354 1299.82,354 1299.82,-89.2948 "/>
    <polyline style="fill: none; fill-opacity:0; stroke-width: 2; stroke: #000000" points="1304.82,-76.6474 1299.82,-92.6474 1294.82,-76.6474 "/>
  </g>
  <g>
    <polyline style="fill: none; fill-opacity:0; stroke-width: 2; stroke-dasharray: 8; stroke: #000000" points="1340,54 1299.82,54 1299.82,-89.2948 "/>
    <polyline style="fill: none; fill-opacity:0; stroke-width: 2; stroke: #000000" points="1304.82,-76.6474 1299.82,-92.6474 1294.82,-76.6474 "/>
  </g>
  <g>
    <polyline style="fill: none; fill-opacity:0; stroke-width: 2; stroke-dasharray: 8; stroke: #000000" points="1900,74 1864.08,74 1864.08,-89.2948 "/>
    <polyline style="fill: none; fill-opacity:0; stroke-width: 2; stroke: #000000" points="1869.08,-76.6474 1864.08,-92.6474 1859.08,-76.6474 "/>
  </g>
  <g>
    <polyline style="fill: none; fill-opacity:0; stroke-width: 2; stroke: #000000" points="798.572,354 813.7,354 813.7,414 840,414 "/>
    <polygon style="fill: #ffffff" points="773.4,354 787.4,349.2 801.4,354 787.4,358.8 "/>
    <polygon style="fill: none; fill-opacity:0; stroke-width: 2; stroke: #000000" points="773.4,354 787.4,349.2 801.4,354 787.4,358.8 "/>
    <text font-size="12.7998" style="fill: #000000;text-anchor:start;font-family:monospace;font-style:normal;font-weight:normal" x="805.4" y="351">1</text>
    <text font-size="12.7998" style="fill: #000000;text-anchor:end;font-family:monospace;font-style:normal;font-weight:normal" x="836" y="411">1</text>
  </g>
</svg>
