<?xml version="1.0" encoding="UTF-8" standalone="no"?>
<!DOCTYPE svg PUBLIC "-//W3C//DTD SVG 1.0//EN" "http://www.w3.org/TR/2001/PR-SVG-20010719/DTD/svg10.dtd">
<svg width="94cm" height="47cm" viewBox="-41 59 1862 923" xmlns="http://www.w3.org/2000/svg" xmlns:xlink="http://www.w3.org/1999/xlink">
  <g>
    <rect style="fill: #ffffff" x="1400" y="620" width="420" height="360"/>
    <rect style="fill: none; fill-opacity:0; stroke-width: 2; stroke: #000000" x="1400" y="620" width="420" height="360"/>
    <rect style="fill: #ffffff" x="1400" y="600" width="111.8" height="20"/>
    <rect style="fill: none; fill-opacity:0; stroke-width: 2; stroke: #000000" x="1400" y="600" width="111.8" height="20"/>
    <text font-size="12.7998" style="fill: #000000;text-anchor:start;font-family:monospace;font-style:normal;font-weight:normal" x="1402" y="615">src/interfaces</text>
  </g>
  <g>
    <rect style="fill: #ffffff" x="400" y="560" width="920" height="420" rx="40" ry="40"/>
    <rect style="fill: none; fill-opacity:0; stroke-width: 2; stroke-linejoin: round; stroke-dasharray: 20 8 4 8; stroke: #000000" x="400" y="560" width="920" height="420" rx="40" ry="40"/>
  </g>
  <g>
    <rect style="fill: #ffffff" x="460" y="620" width="280" height="320"/>
    <rect style="fill: none; fill-opacity:0; stroke-width: 2; stroke-linejoin: round; stroke: #000000" x="460" y="620" width="280" height="320"/>
    <rect style="fill: #ffffff" x="460" y="600" width="73.3" height="20"/>
    <rect style="fill: none; fill-opacity:0; stroke-width: 2; stroke-linejoin: round; stroke: #000000" x="460" y="600" width="73.3" height="20"/>
    <text font-size="12.7998" style="fill: #000000;text-anchor:start;font-family:monospace;font-style:normal;font-weight:normal" x="462" y="615">src/mains</text>
  </g>
  <g>
    <rect style="fill: #ffffff" x="820" y="620" width="460" height="320"/>
    <rect style="fill: none; fill-opacity:0; stroke-width: 2; stroke-linejoin: round; stroke: #000000" x="820" y="620" width="460" height="320"/>
    <rect style="fill: #ffffff" x="820" y="600" width="73.3" height="20"/>
    <rect style="fill: none; fill-opacity:0; stroke-width: 2; stroke-linejoin: round; stroke: #000000" x="820" y="600" width="73.3" height="20"/>
    <text font-size="12.7998" style="fill: #000000;text-anchor:start;font-family:monospace;font-style:normal;font-weight:normal" x="822" y="615">src/parts</text>
  </g>
  <g>
    <rect style="fill: #ffffff" x="-40" y="80" width="1860" height="440"/>
    <rect style="fill: none; fill-opacity:0; stroke-width: 2; stroke-linejoin: round; stroke: #000000" x="-40" y="80" width="1860" height="440"/>
    <rect style="fill: #ffffff" x="-40" y="60" width="65.6" height="20"/>
    <rect style="fill: none; fill-opacity:0; stroke-width: 2; stroke-linejoin: round; stroke: #000000" x="-40" y="60" width="65.6" height="20"/>
    <text font-size="12.7998" style="fill: #000000;text-anchor:start;font-family:monospace;font-style:normal;font-weight:normal" x="-38" y="75">src/core</text>
  </g>
  <g>
    <rect style="fill: #ffffff" x="920" y="120" width="356.5" height="28"/>
    <rect style="fill: none; fill-opacity:0; stroke-width: 2; stroke-linejoin: round; stroke: #000000" x="920" y="120" width="356.5" height="28"/>
    <text font-size="16" style="fill: #000000;text-anchor:middle;font-family:sans-serif;font-style:italic;font-weight:700" x="1098.25" y="139">ComThread</text>
    <rect style="fill: #ffffff" x="920" y="148" width="356.5" height="84"/>
    <rect style="fill: none; fill-opacity:0; stroke-width: 2; stroke-linejoin: round; stroke: #000000" x="920" y="148" width="356.5" height="84"/>
    <text font-size="12.8" style="fill: #000000;text-anchor:start;font-family:monospace;font-style:normal;font-weight:normal" x="923" y="162">-thr: thread</text>
    <text font-size="12.8" style="fill: #000000;text-anchor:start;font-family:monospace;font-style:normal;font-weight:normal" x="923" y="178">-dt_microseconds: int</text>
    <text font-size="12.8" style="fill: #000000;text-anchor:start;font-family:monospace;font-style:normal;font-weight:normal" x="923" y="194">-jog_go_on: bool</text>
    <text font-size="12.8" style="fill: #000000;text-anchor:start;font-family:monospace;font-style:normal;font-weight:normal" x="923" y="210">-name: string</text>
    <text font-size="12.8" style="fill: #000000;text-anchor:start;font-family:monospace;font-style:normal;font-weight:normal" x="923" y="226">-critical_input, critical_output: PFloatMap</text>
    <rect style="fill: #ffffff" x="920" y="232" width="356.5" height="260"/>
    <rect style="fill: none; fill-opacity:0; stroke-width: 2; stroke-linejoin: round; stroke: #000000" x="920" y="232" width="356.5" height="260"/>
    <text font-size="12.8" style="fill: #000000;text-anchor:start;font-family:monospace;font-style:normal;font-weight:normal" x="923" y="246">+Link(s:Share*): void</text>
    <text font-size="12.8" style="fill: #000000;text-anchor:start;font-family:monospace;font-style:normal;font-weight:normal" x="923" y="262">+Launch(): void</text>
    <text font-size="12.8" style="fill: #000000;text-anchor:start;font-family:monospace;font-style:normal;font-weight:normal" x="923" y="278">+Join(): void</text>
    <text font-size="12.8" style="fill: #000000;text-anchor:start;font-family:monospace;font-style:normal;font-weight:normal" x="923" y="294">+Set_name(name:string): void</text>
    <text font-size="12.8" style="fill: #000000;text-anchor:start;font-family:monospace;font-style:normal;font-weight:normal" x="923" y="310">+Set_freq(dt_microseconds:int): void</text>
    <text font-size="12.8" style="fill: #000000;text-anchor:start;font-family:monospace;font-style:normal;font-weight:normal" x="923" y="326">+Get_name(): string</text>
    <text font-size="12.8" style="fill: #000000;text-anchor:start;font-family:monospace;font-style:normal;font-weight:normal" x="923" y="342">+Get_freq(): float</text>
    <text font-size="12.8" style="fill: #000000;text-anchor:start;font-family:monospace;font-style:normal;font-weight:normal" x="923" y="358">+Get_inputs(): vector &lt;string&gt;</text>
    <text font-size="12.8" style="fill: #000000;text-anchor:start;font-family:monospace;font-style:normal;font-weight:normal" x="923" y="374">+Get_outputs(): vector &lt;string&gt;</text>
    <text font-size="12.8" style="fill: #000000;text-anchor:start;font-family:monospace;font-style:normal;font-weight:normal" x="923" y="390">-Loop_job(): void</text>
    <text font-size="12.8" style="fill: #000000;text-anchor:start;font-family:monospace;font-style:italic;font-weight:normal" x="923" y="406">#Job(): void</text>
    <text font-size="12.8" style="fill: #000000;text-anchor:start;font-family:monospace;font-style:italic;font-weight:normal" x="923" y="422">#IO(): void</text>
    <text font-size="12.8" style="fill: #000000;text-anchor:start;font-family:monospace;font-style:normal;font-weight:normal" x="923" y="438">#Link_input(key:string,p_float:float*): void</text>
    <text font-size="12.8" style="fill: #000000;text-anchor:start;font-family:monospace;font-style:normal;font-weight:normal" x="923" y="454">#Link_output(key:string,p_float:float*): void</text>
    <text font-size="12.8" style="fill: #000000;text-anchor:start;font-family:monospace;font-style:normal;font-weight:normal" x="923" y="470">#Critical_receive(): void</text>
    <text font-size="12.8" style="fill: #000000;text-anchor:start;font-family:monospace;font-style:normal;font-weight:normal" x="923" y="486">#Critical_send(): void</text>
  </g>
  <g>
    <rect style="fill: #ffffff" x="0" y="380" width="472" height="28"/>
    <rect style="fill: none; fill-opacity:0; stroke-width: 2; stroke-linejoin: round; stroke: #000000" x="0" y="380" width="472" height="28"/>
    <text font-size="16" style="fill: #000000;text-anchor:middle;font-family:sans-serif;font-style:normal;font-weight:700" x="236" y="399">ComDraw</text>
    <rect style="fill: #ffffff" x="0" y="408" width="472" height="8"/>
    <rect style="fill: none; fill-opacity:0; stroke-width: 2; stroke-linejoin: round; stroke: #000000" x="0" y="408" width="472" height="8"/>
    <rect style="fill: #ffffff" x="0" y="416" width="472" height="52"/>
    <rect style="fill: none; fill-opacity:0; stroke-width: 2; stroke-linejoin: round; stroke: #000000" x="0" y="416" width="472" height="52"/>
    <text font-size="12.8" style="fill: #000000;text-anchor:start;font-family:monospace;font-style:normal;font-weight:normal" x="3" y="430">+Draw_threads(name:string,threads:vector &lt;ComThread*&gt;): void</text>
    <text font-size="12.8" style="fill: #000000;text-anchor:start;font-family:monospace;font-style:normal;font-weight:normal" x="3" y="446">-Generate_dot(name:string,threads:vector &lt;ComThread*&gt;): void</text>
    <text font-size="12.8" style="fill: #000000;text-anchor:start;font-family:monospace;font-style:normal;font-weight:normal" x="3" y="462">-Generate_svg(name:string): void</text>
  </g>
  <g>
    <rect style="fill: #ffffff" x="20" y="560" width="89.95" height="28"/>
    <rect style="fill: none; fill-opacity:0; stroke-width: 2; stroke-linejoin: round; stroke: #000000" x="20" y="560" width="89.95" height="28"/>
    <text font-size="16" style="fill: #000000;text-anchor:middle;font-family:sans-serif;font-style:normal;font-weight:700" x="64.975" y="579">Graphviz</text>
    <rect style="fill: #ffffff" x="20" y="588" width="89.95" height="8"/>
    <rect style="fill: none; fill-opacity:0; stroke-width: 2; stroke-linejoin: round; stroke: #000000" x="20" y="588" width="89.95" height="8"/>
    <rect style="fill: #ffffff" x="20" y="596" width="89.95" height="8"/>
    <rect style="fill: none; fill-opacity:0; stroke-width: 2; stroke-linejoin: round; stroke: #000000" x="20" y="596" width="89.95" height="8"/>
  </g>
  <g>
    <polyline style="fill: none; fill-opacity:0; stroke-width: 2; stroke-dasharray: 8; stroke: #000000" points="236,468 236,500 64.975,500 64.975,553.295 "/>
    <polyline style="fill: none; fill-opacity:0; stroke-width: 2; stroke: #000000" points="59.975,540.647 64.975,556.647 69.975,540.647 "/>
  </g>
  <g>
    <rect style="fill: #ffffff" x="520" y="120" width="271.8" height="28"/>
    <rect style="fill: none; fill-opacity:0; stroke-width: 2; stroke: #000000" x="520" y="120" width="271.8" height="28"/>
    <text font-size="16" style="fill: #000000;text-anchor:middle;font-family:sans-serif;font-style:normal;font-weight:700" x="655.9" y="139">Share</text>
    <rect style="fill: #ffffff" x="520" y="148" width="271.8" height="36"/>
    <rect style="fill: none; fill-opacity:0; stroke-width: 2; stroke: #000000" x="520" y="148" width="271.8" height="36"/>
    <text font-size="12.8" style="fill: #000000;text-anchor:start;font-family:monospace;font-style:normal;font-weight:normal" x="523" y="162">-mu: mutex</text>
    <text font-size="12.8" style="fill: #000000;text-anchor:start;font-family:monospace;font-style:normal;font-weight:normal" x="523" y="178">-data: FloatMap</text>
    <rect style="fill: #ffffff" x="520" y="184" width="271.8" height="84"/>
    <rect style="fill: none; fill-opacity:0; stroke-width: 2; stroke: #000000" x="520" y="184" width="271.8" height="84"/>
    <text font-size="12.8" style="fill: #000000;text-anchor:start;font-family:monospace;font-style:normal;font-weight:normal" x="523" y="198">+Create_data(key:string): void</text>
    <text font-size="12.8" style="fill: #000000;text-anchor:start;font-family:monospace;font-style:normal;font-weight:normal" x="523" y="214">+Send(input:PFloatMap): void</text>
    <text font-size="12.8" style="fill: #000000;text-anchor:start;font-family:monospace;font-style:normal;font-weight:normal" x="523" y="230">+Receive(StringVec:keys): FloatMap</text>
    <text font-size="12.8" style="fill: #000000;text-anchor:start;font-family:monospace;font-style:normal;font-weight:normal" x="523" y="246">-Lock(): void</text>
    <text font-size="12.8" style="fill: #000000;text-anchor:start;font-family:monospace;font-style:normal;font-weight:normal" x="523" y="262">-Unlock(): void</text>
  </g>
  <g>
    <rect style="fill: #ffffff" x="520" y="340" width="333.4" height="28"/>
    <rect style="fill: none; fill-opacity:0; stroke-width: 2; stroke: #000000" x="520" y="340" width="333.4" height="28"/>
    <text font-size="16" style="fill: #000000;text-anchor:middle;font-family:sans-serif;font-style:normal;font-weight:700" x="686.7" y="359">Maestro</text>
    <rect style="fill: #ffffff" x="520" y="368" width="333.4" height="20"/>
    <rect style="fill: none; fill-opacity:0; stroke-width: 2; stroke: #000000" x="520" y="368" width="333.4" height="20"/>
    <text font-size="12.8" style="fill: #000000;text-anchor:start;font-family:monospace;font-style:normal;font-weight:normal" x="523" y="382">-threads: vector &lt;ComThread*&gt;</text>
    <rect style="fill: #ffffff" x="520" y="388" width="333.4" height="100"/>
    <rect style="fill: none; fill-opacity:0; stroke-width: 2; stroke: #000000" x="520" y="388" width="333.4" height="100"/>
    <text font-size="12.8" style="fill: #000000;text-anchor:start;font-family:monospace;font-style:normal;font-weight:normal" x="523" y="402">#Add_thread(thread:ComThread*,name:string,</text>
    <text font-size="12.8" style="fill: #000000;text-anchor:start;font-family:monospace;font-style:normal;font-weight:normal" x="523" y="418">            dt_microseconds:int): void</text>
    <text font-size="12.8" style="fill: #000000;text-anchor:start;font-family:monospace;font-style:normal;font-weight:normal" x="523" y="434">#Link_all(): void</text>
    <text font-size="12.8" style="fill: #000000;text-anchor:start;font-family:monospace;font-style:normal;font-weight:normal" x="523" y="450">#Launch_all(): void</text>
    <text font-size="12.8" style="fill: #000000;text-anchor:start;font-family:monospace;font-style:normal;font-weight:normal" x="523" y="466">#Join_all(): void</text>
    <text font-size="12.8" style="fill: #000000;text-anchor:start;font-family:monospace;font-style:normal;font-weight:normal" x="523" y="482">#Draw(filename:string): void</text>
  </g>
  <g>
    <rect style="fill: #ffffff" x="500" y="740" width="178.15" height="28"/>
    <rect style="fill: none; fill-opacity:0; stroke-width: 2; stroke: #000000" x="500" y="740" width="178.15" height="28"/>
    <text font-size="16" style="fill: #000000;text-anchor:middle;font-family:sans-serif;font-style:normal;font-weight:700" x="589.075" y="759">Joystick_to_python</text>
    <rect style="fill: #ffffff" x="500" y="768" width="178.15" height="8"/>
    <rect style="fill: none; fill-opacity:0; stroke-width: 2; stroke: #000000" x="500" y="768" width="178.15" height="8"/>
    <rect style="fill: #ffffff" x="500" y="776" width="178.15" height="36"/>
    <rect style="fill: none; fill-opacity:0; stroke-width: 2; stroke: #000000" x="500" y="776" width="178.15" height="36"/>
    <text font-size="12.8" style="fill: #000000;text-anchor:start;font-family:monospace;font-style:normal;font-weight:normal" x="503" y="790">+main(): int</text>
    <line style="fill: none; fill-opacity:0; stroke-width: 1; stroke: #000000" x1="503" y1="791.6" x2="595.4" y2="791.6"/>
    <text font-size="12.8" style="fill: #000000;text-anchor:start;font-family:monospace;font-style:normal;font-weight:normal" x="503" y="806">+Shutdown(): void</text>
  </g>
  <g>
    <rect style="fill: #ffffff" x="880" y="660" width="133.2" height="28"/>
    <rect style="fill: none; fill-opacity:0; stroke-width: 2; stroke: #000000" x="880" y="660" width="133.2" height="28"/>
    <text font-size="16" style="fill: #000000;text-anchor:middle;font-family:sans-serif;font-style:normal;font-weight:700" x="946.6" y="679">Sensor_J</text>
    <rect style="fill: #ffffff" x="880" y="688" width="133.2" height="20"/>
    <rect style="fill: none; fill-opacity:0; stroke-width: 2; stroke: #000000" x="880" y="688" width="133.2" height="20"/>
    <text font-size="12.8" style="fill: #000000;text-anchor:start;font-family:monospace;font-style:normal;font-weight:normal" x="883" y="702">-data_out: float</text>
    <rect style="fill: #ffffff" x="880" y="708" width="133.2" height="36"/>
    <rect style="fill: none; fill-opacity:0; stroke-width: 2; stroke: #000000" x="880" y="708" width="133.2" height="36"/>
    <text font-size="12.8" style="fill: #000000;text-anchor:start;font-family:monospace;font-style:normal;font-weight:normal" x="883" y="722">-Job()</text>
    <text font-size="12.8" style="fill: #000000;text-anchor:start;font-family:monospace;font-style:normal;font-weight:normal" x="883" y="738">-IO(): void</text>
  </g>
  <g>
    <rect style="fill: #ffffff" x="880" y="820" width="125.5" height="28"/>
    <rect style="fill: none; fill-opacity:0; stroke-width: 2; stroke: #000000" x="880" y="820" width="125.5" height="28"/>
    <text font-size="16" style="fill: #000000;text-anchor:middle;font-family:sans-serif;font-style:normal;font-weight:700" x="942.75" y="839">State_P</text>
    <rect style="fill: #ffffff" x="880" y="848" width="125.5" height="20"/>
    <rect style="fill: none; fill-opacity:0; stroke-width: 2; stroke: #000000" x="880" y="848" width="125.5" height="20"/>
    <text font-size="12.8" style="fill: #000000;text-anchor:start;font-family:monospace;font-style:normal;font-weight:normal" x="883" y="862">-data_in: float</text>
    <rect style="fill: #ffffff" x="880" y="868" width="125.5" height="36"/>
    <rect style="fill: none; fill-opacity:0; stroke-width: 2; stroke: #000000" x="880" y="868" width="125.5" height="36"/>
    <text font-size="12.8" style="fill: #000000;text-anchor:start;font-family:monospace;font-style:normal;font-weight:normal" x="883" y="882">-Job(): void</text>
    <text font-size="12.8" style="fill: #000000;text-anchor:start;font-family:monospace;font-style:normal;font-weight:normal" x="883" y="898">-IO(): void</text>
  </g>
  <g>
    <polyline style="fill: none; fill-opacity:0; stroke-width: 2; stroke: #000000" points="1098.25,510.236 1098.25,580 946.6,580 946.6,660 "/>
    <polygon style="fill: #ffffff" points="1106.25,510.236 1098.25,494.236 1090.25,510.236 "/>
    <polygon style="fill: none; fill-opacity:0; stroke-width: 2; stroke: #000000" points="1106.25,510.236 1098.25,494.236 1090.25,510.236 "/>
  </g>
  <g>
    <polyline style="fill: none; fill-opacity:0; stroke-width: 2; stroke: #000000" points="1552.15,378.236 1552.15,420 1360,420 1360,760 942.75,760 942.75,820 "/>
    <polygon style="fill: #ffffff" points="1560.15,378.236 1552.15,362.236 1544.15,378.236 "/>
    <polygon style="fill: none; fill-opacity:0; stroke-width: 2; stroke: #000000" points="1560.15,378.236 1552.15,362.236 1544.15,378.236 "/>
  </g>
  <g>
    <polyline style="fill: none; fill-opacity:0; stroke-width: 2; stroke: #000000" points="686.7,506.236 686.7,580 589.074,580 589.074,740 "/>
    <polygon style="fill: #ffffff" points="694.7,506.236 686.7,490.236 678.7,506.236 "/>
    <polygon style="fill: none; fill-opacity:0; stroke-width: 2; stroke: #000000" points="694.7,506.236 686.7,490.236 678.7,506.236 "/>
  </g>
  <g>
    <polyline style="fill: none; fill-opacity:0; stroke-width: 2; stroke: #000000" points="686.7,314.828 686.7,297 655.9,297 655.9,268 "/>
    <polygon style="fill: #ffffff" points="686.7,340 681.9,326 686.7,312 691.5,326 "/>
    <polygon style="fill: none; fill-opacity:0; stroke-width: 2; stroke: #000000" points="686.7,340 681.9,326 686.7,312 691.5,326 "/>
    <text font-size="12.7998" style="fill: #000000;text-anchor:middle;font-family:monospace;font-style:normal;font-weight:normal" x="671.3" y="294"/>
    <text font-size="12.7998" style="fill: #000000;text-anchor:start;font-family:monospace;font-style:normal;font-weight:normal" x="697.7" y="336">1</text>
    <text font-size="12.7998" style="fill: #000000;text-anchor:start;font-family:monospace;font-style:normal;font-weight:normal" x="659.9" y="280">1</text>
  </g>
  <g>
    <polyline style="fill: none; fill-opacity:0; stroke-width: 2; stroke: #000000" points="791.8,134 792.8,134 919,134 920,134 "/>
    <text font-size="12.7998" style="fill: #000000;text-anchor:middle;font-family:monospace;font-style:normal;font-weight:normal" x="855.9" y="131"/>
    <polygon style="fill: #000000" points="851.9,131 851.9,123 843.9,127 "/>
    <text font-size="12.7998" style="fill: #000000;text-anchor:start;font-family:monospace;font-style:normal;font-weight:normal" x="795.8" y="131">1</text>
    <text font-size="12.7998" style="fill: #000000;text-anchor:end;font-family:monospace;font-style:normal;font-weight:normal" x="916" y="131">*</text>
  </g>
  <g>
    <polyline style="fill: none; fill-opacity:0; stroke-width: 2; stroke: #000000" points="494.828,354 236,354 236,380 "/>
    <polygon style="fill: #ffffff" points="520,354 506,358.8 492,354 506,349.2 "/>
    <polygon style="fill: none; fill-opacity:0; stroke-width: 2; stroke: #000000" points="520,354 506,358.8 492,354 506,349.2 "/>
    <text font-size="12.7998" style="fill: #000000;text-anchor:middle;font-family:monospace;font-style:normal;font-weight:normal" x="378" y="351"/>
    <text font-size="12.7998" style="fill: #000000;text-anchor:end;font-family:monospace;font-style:normal;font-weight:normal" x="488" y="351">1</text>
    <text font-size="12.7998" style="fill: #000000;text-anchor:start;font-family:monospace;font-style:normal;font-weight:normal" x="240" y="376">1</text>
  </g>
  <g>
    <polyline style="fill: none; fill-opacity:0; stroke-width: 2; stroke: #000000" points="703.322,754 780,754 780,674 880,674 "/>
    <polygon style="fill: #ffffff" points="678.15,754 692.15,749.2 706.15,754 692.15,758.8 "/>
    <polygon style="fill: none; fill-opacity:0; stroke-width: 2; stroke: #000000" points="678.15,754 692.15,749.2 706.15,754 692.15,758.8 "/>
    <text font-size="12.7998" style="fill: #000000;text-anchor:start;font-family:monospace;font-style:normal;font-weight:normal" x="782" y="711"/>
    <text font-size="12.7998" style="fill: #000000;text-anchor:start;font-family:monospace;font-style:normal;font-weight:normal" x="710.15" y="751">1</text>
    <text font-size="12.7998" style="fill: #000000;text-anchor:end;font-family:monospace;font-style:normal;font-weight:normal" x="876" y="671">1</text>
  </g>
  <g>
    <polyline style="fill: none; fill-opacity:0; stroke-width: 2; stroke: #000000" points="703.322,754 780,754 780,834 880,834 "/>
    <polygon style="fill: #ffffff" points="678.15,754 692.15,749.2 706.15,754 692.15,758.8 "/>
    <polygon style="fill: none; fill-opacity:0; stroke-width: 2; stroke: #000000" points="678.15,754 692.15,749.2 706.15,754 692.15,758.8 "/>
    <text font-size="12.7998" style="fill: #000000;text-anchor:start;font-family:monospace;font-style:normal;font-weight:normal" x="782" y="791"/>
    <text font-size="12.7998" style="fill: #000000;text-anchor:start;font-family:monospace;font-style:normal;font-weight:normal" x="710.15" y="751">1</text>
    <text font-size="12.7998" style="fill: #000000;text-anchor:end;font-family:monospace;font-style:normal;font-weight:normal" x="876" y="831">1</text>
  </g>
  <text font-size="12.8" style="fill: #000000;text-anchor:middle;font-family:sans-serif;font-style:normal;font-weight:normal" x="880" y="964.45">
    <tspan x="880" y="964.45">What you have to do</tspan>
  </text>
  <g>
    <rect style="fill: #ffffff" x="1320" y="180" width="464.3" height="28"/>
    <rect style="fill: none; fill-opacity:0; stroke-width: 2; stroke: #000000" x="1320" y="180" width="464.3" height="28"/>
    <text font-size="16" style="fill: #000000;text-anchor:middle;font-family:sans-serif;font-style:italic;font-weight:700" x="1552.15" y="199">ComPython</text>
    <rect style="fill: #ffffff" x="1320" y="208" width="464.3" height="36"/>
    <rect style="fill: none; fill-opacity:0; stroke-width: 2; stroke: #000000" x="1320" y="208" width="464.3" height="36"/>
    <text font-size="12.8" style="fill: #000000;text-anchor:start;font-family:monospace;font-style:normal;font-weight:normal" x="1323" y="222">-connected: bool</text>
    <text font-size="12.8" style="fill: #000000;text-anchor:start;font-family:monospace;font-style:normal;font-weight:normal" x="1323" y="238">-input_keys, output_keys: PFloatMap</text>
    <rect style="fill: #ffffff" x="1320" y="244" width="464.3" height="116"/>
    <rect style="fill: none; fill-opacity:0; stroke-width: 2; stroke: #000000" x="1320" y="244" width="464.3" height="116"/>
    <text font-size="12.8" style="fill: #000000;text-anchor:start;font-family:monospace;font-style:normal;font-weight:normal" x="1323" y="258">+Connect_python(script_name:string,class_name:string): void</text>
    <text font-size="12.8" style="fill: #000000;text-anchor:start;font-family:monospace;font-style:normal;font-weight:normal" x="1323" y="274">+Disconnect_python(): void</text>
    <text font-size="12.8" style="fill: #000000;text-anchor:start;font-family:monospace;font-style:normal;font-weight:normal" x="1323" y="290">#Link_input_python(key:string,p_float:float*): void</text>
    <text font-size="12.8" style="fill: #000000;text-anchor:start;font-family:monospace;font-style:normal;font-weight:normal" x="1323" y="306">#Link_output_python(key:string,p_float:float*): void</text>
    <text font-size="12.8" style="fill: #000000;text-anchor:start;font-family:monospace;font-style:normal;font-weight:normal" x="1323" y="322">#Send_to_python(): void</text>
    <text font-size="12.8" style="fill: #000000;text-anchor:start;font-family:monospace;font-style:normal;font-weight:normal" x="1323" y="338">#Receive_from_python(): void</text>
    <text font-size="12.8" style="fill: #000000;text-anchor:start;font-family:monospace;font-style:normal;font-weight:normal" x="1323" y="354">#Job_python(): void</text>
  </g>
  <g>
    <polyline style="fill: none; fill-opacity:0; stroke-width: 2; stroke: #000000" points="1294.74,134 1552.15,134 1552.15,180 "/>
    <polygon style="fill: #ffffff" points="1294.74,126 1278.74,134 1294.74,142 "/>
    <polygon style="fill: none; fill-opacity:0; stroke-width: 2; stroke: #000000" points="1294.74,126 1278.74,134 1294.74,142 "/>
  </g>
  <g>
    <rect style="fill: #ffffff" x="1460" y="660" width="310.3" height="28"/>
    <rect style="fill: none; fill-opacity:0; stroke-width: 2; stroke: #000000" x="1460" y="660" width="310.3" height="28"/>
    <text font-size="16" style="fill: #000000;text-anchor:middle;font-family:sans-serif;font-style:normal;font-weight:700" x="1615.15" y="679">Joystick</text>
    <rect style="fill: #ffffff" x="1460" y="688" width="310.3" height="84"/>
    <rect style="fill: none; fill-opacity:0; stroke-width: 2; stroke: #000000" x="1460" y="688" width="310.3" height="84"/>
    <text font-size="12.8" style="fill: #000000;text-anchor:start;font-family:monospace;font-style:normal;font-weight:normal" x="1463" y="702">-event: SDL_Event</text>
    <text font-size="12.8" style="fill: #000000;text-anchor:start;font-family:monospace;font-style:normal;font-weight:normal" x="1463" y="718">-joystick: SDL_Joystick</text>
    <text font-size="12.8" style="fill: #000000;text-anchor:start;font-family:monospace;font-style:normal;font-weight:normal" x="1463" y="734">-num_device: int</text>
    <text font-size="12.8" style="fill: #000000;text-anchor:start;font-family:monospace;font-style:normal;font-weight:normal" x="1463" y="750">-nb_buttons, nb_axes, nb_hats: int</text>
    <text font-size="12.8" style="fill: #000000;text-anchor:start;font-family:monospace;font-style:normal;font-weight:normal" x="1463" y="766">-buttons, axes, hats: int*</text>
    <rect style="fill: #ffffff" x="1460" y="772" width="310.3" height="164"/>
    <rect style="fill: none; fill-opacity:0; stroke-width: 2; stroke: #000000" x="1460" y="772" width="310.3" height="164"/>
    <text font-size="12.8" style="fill: #000000;text-anchor:start;font-family:monospace;font-style:normal;font-weight:normal" x="1463" y="786">+Connect_joystick(num_device:int): bool</text>
    <text font-size="12.8" style="fill: #000000;text-anchor:start;font-family:monospace;font-style:normal;font-weight:normal" x="1463" y="802">+Disconnect_joystick(): void</text>
    <text font-size="12.8" style="fill: #000000;text-anchor:start;font-family:monospace;font-style:normal;font-weight:normal" x="1463" y="818">+Update_event(): void</text>
    <text font-size="12.8" style="fill: #000000;text-anchor:start;font-family:monospace;font-style:normal;font-weight:normal" x="1463" y="834">+Print_infos(): void</text>
    <text font-size="12.8" style="fill: #000000;text-anchor:start;font-family:monospace;font-style:normal;font-weight:normal" x="1463" y="850">+Get_nb_buttons(): int</text>
    <text font-size="12.8" style="fill: #000000;text-anchor:start;font-family:monospace;font-style:normal;font-weight:normal" x="1463" y="866">+Get_nb_axes(): int</text>
    <text font-size="12.8" style="fill: #000000;text-anchor:start;font-family:monospace;font-style:normal;font-weight:normal" x="1463" y="882">+Get_nb_hats(): int</text>
    <text font-size="12.8" style="fill: #000000;text-anchor:start;font-family:monospace;font-style:normal;font-weight:normal" x="1463" y="898">+Get_buttons(): int*</text>
    <text font-size="12.8" style="fill: #000000;text-anchor:start;font-family:monospace;font-style:normal;font-weight:normal" x="1463" y="914">+Get_axes(): int*</text>
    <text font-size="12.8" style="fill: #000000;text-anchor:start;font-family:monospace;font-style:normal;font-weight:normal" x="1463" y="930">+Get_hats(): int*</text>
  </g>
  <g>
    <rect style="fill: #ffffff" x="1680" y="540" width="45.05" height="28"/>
    <rect style="fill: none; fill-opacity:0; stroke-width: 2; stroke: #000000" x="1680" y="540" width="45.05" height="28"/>
    <text font-size="16" style="fill: #000000;text-anchor:middle;font-family:sans-serif;font-style:normal;font-weight:700" x="1702.53" y="559">SDL</text>
    <rect style="fill: #ffffff" x="1680" y="568" width="45.05" height="8"/>
    <rect style="fill: none; fill-opacity:0; stroke-width: 2; stroke: #000000" x="1680" y="568" width="45.05" height="8"/>
    <rect style="fill: #ffffff" x="1680" y="576" width="45.05" height="8"/>
    <rect style="fill: none; fill-opacity:0; stroke-width: 2; stroke: #000000" x="1680" y="576" width="45.05" height="8"/>
  </g>
  <g>
    <rect style="fill: #ffffff" x="1080" y="800" width="160" height="100"/>
    <rect style="fill: none; fill-opacity:0; stroke-width: 2; stroke: #000000" x="1080" y="800" width="160" height="100"/>
    <rect style="fill: #ffffff" x="1080" y="780" width="127.2" height="20"/>
    <rect style="fill: none; fill-opacity:0; stroke-width: 2; stroke: #000000" x="1080" y="780" width="127.2" height="20"/>
    <text font-size="12.7998" style="fill: #000000;text-anchor:start;font-family:monospace;font-style:normal;font-weight:normal" x="1082" y="795">src/parts/python</text>
  </g>
  <g>
    <rect style="fill: #ffffff" x="1100" y="820" width="125.5" height="28"/>
    <rect style="fill: none; fill-opacity:0; stroke-width: 2; stroke: #000000" x="1100" y="820" width="125.5" height="28"/>
    <text font-size="16" style="fill: #000000;text-anchor:middle;font-family:sans-serif;font-style:normal;font-weight:700" x="1162.75" y="839">brain.py</text>
    <rect style="fill: #ffffff" x="1100" y="848" width="125.5" height="20"/>
    <rect style="fill: none; fill-opacity:0; stroke-width: 2; stroke: #000000" x="1100" y="848" width="125.5" height="20"/>
    <text font-size="12.8" style="fill: #000000;text-anchor:start;font-family:monospace;font-style:normal;font-weight:normal" x="1103" y="862">+my_data: Float</text>
    <rect style="fill: #ffffff" x="1100" y="868" width="125.5" height="20"/>
    <rect style="fill: none; fill-opacity:0; stroke-width: 2; stroke: #000000" x="1100" y="868" width="125.5" height="20"/>
    <text font-size="12.8" style="fill: #000000;text-anchor:start;font-family:monospace;font-style:normal;font-weight:normal" x="1103" y="882">+Job(): def</text>
  </g>
  <g>
    <polyline style="fill: none; fill-opacity:0; stroke-width: 2; stroke: #000000" points="1005.5,834 1040,834 1040,834 1100,834 "/>
    <text font-size="12.7998" style="fill: #000000;text-anchor:middle;font-family:monospace;font-style:normal;font-weight:normal" x="1040" y="831"/>
    <polygon style="fill: #000000" points="1042,831 1042,823 1050,827 "/>
    <text font-size="12.7998" style="fill: #000000;text-anchor:start;font-family:monospace;font-style:normal;font-weight:normal" x="1009.5" y="831">1</text>
    <text font-size="12.7998" style="fill: #000000;text-anchor:end;font-family:monospace;font-style:normal;font-weight:normal" x="1096" y="831">1</text>
  </g>
  <g>
    <polyline style="fill: none; fill-opacity:0; stroke-width: 2; stroke: #000000" points="1013.2,674 1160,674 1160,674 1460,674 "/>
    <text font-size="12.7998" style="fill: #000000;text-anchor:middle;font-family:monospace;font-style:normal;font-weight:normal" x="1160" y="671"/>
    <polygon style="fill: #000000" points="1162,671 1162,663 1170,667 "/>
    <text font-size="12.7998" style="fill: #000000;text-anchor:start;font-family:monospace;font-style:normal;font-weight:normal" x="1017.2" y="671">1</text>
    <text font-size="12.7998" style="fill: #000000;text-anchor:end;font-family:monospace;font-style:normal;font-weight:normal" x="1456" y="671">1</text>
  </g>
  <g>
    <polyline style="fill: none; fill-opacity:0; stroke-width: 2; stroke-dasharray: 8; stroke: #000000" points="1615.15,660 1615.15,554 1673.29,554 "/>
    <polyline style="fill: none; fill-opacity:0; stroke-width: 2; stroke: #000000" points="1660.65,559 1676.65,554 1660.65,549 "/>
  </g>
</svg>
